<svg xmlns="http://www.w3.org/2000/svg" fill="currentColor" viewBox="0 0 200 124"><ellipse cx="100" cy="62" fill="none" stroke="currentColor" stroke-width="2.4" rx="96" ry="58"/><ellipse cx="100" cy="62" fill="none" stroke="currentColor" stroke-width=".9" rx="89" ry="51"/><path d="M77 86.6q-4.9 0-9.5-1.7T59.2 80q-3.6-3.1-5.7-7.6-2-4.4-2-9.8 0-5.1 2.2-9.5 2.1-4.4 6-7.7 3.8-3.2 8.7-5t10.4-1.8q2.7 0 4.6.2 2 .2 3.8.6l4.2 1q1 .3 1.5.9.5.5.5 1.5l.4 3.5.3 4.7q0 .5-.5.8t-1.1.2q-.6-.2-.8-1-.8-2.6-1.7-4.6t-2.7-3.2-4.3-1.8-5.4-.6q-4.1 0-7.6 1.6T64 47q-2.6 2.8-4 6.4t-1.4 7.5q0 4.4 1.4 8.5 1.4 4.2 4 7.6 2.5 3.3 6.1 5.4 3.6 2 8 2 5.1 0 8.4-2.4 3.3-2.3 5.7-6.5.4-.9 1.4-.9t1 1.1l-.3 1.8-.8 2.7-.9 2.4q-.4 1-.8 1.3-.3.3-1.4.6-2.6 1.1-6.3 1.6t-7.1.5m46.1-.2q-.6 0-.8-.5l-.7-2.1-.8-2.3-12.9-34.7q-.7-2-1.9-3.3-1.3-1.4-3.1-1.9-1.1-.3-1.7-.7t-.6-.8q0-.5.5-.6.6-.2 1.5-.2l2.5.1 3 .1h6l2.5-.1h1.9l1.5.1q.5.2.5.6 0 .5-.5.9t-1.8.6q-2 .2-3.3.8t-1.3 1.9q0 1.2.3 2.1l.5 1.4 10.2 26.9q.1.3.3.3.2.1.4-.4l9.7-25.5q1.5-3.7.2-5.5-1.2-1.7-3.5-2-1-.1-1.7-.5t-.6-.9q0-.4.5-.6t1.5-.2h2.1l2.4.1h2.5l4.4-.1 3.7-.1q.9 0 1.5.2.6.1.6.6t-.6.8l-1.8.6q-2.6.6-4.4 2.4-1.7 1.8-2.5 3.7L126 79.9l-.6 1.5-.8 2.3-.8 2.2-.3.3z"/></svg>
